<svg xmlns="http://www.w3.org/2000/svg" width="90" height="90" fill="none"><path fill="#000" fill-rule="evenodd" d="M74.244 36.88c.129.511.387.639.773.894 5.412 2.044 8.762 5.875 9.793 11.622 1.289 7.536-4.123 15.071-11.726 16.348-1.16.256-2.32.256-3.479.256H19.482c-.387 0-.774 0-1.16-.128-.902-.255-1.289-1.15-1.16-2.17.129-.767.902-1.406 1.933-1.406h15.978c.258-.128.515-.128.902-.128-.258-.255-.387-.383-.516-.638-1.16-1.15-2.19-2.555-2.834-4.087-.13-.383-.387-.511-.774-.511h-2.448c-.902 0-1.288-.383-1.288-1.277V54.25c0-.766.386-1.15 1.16-1.15h1.546c.386 0 .515-.127.515-.51v-4.726H7.112c-1.16 0-1.933-.51-2.062-1.533-.258-1.021.516-2.043 1.546-2.17H31.98c.773 0 1.16-.128 1.547-.895.902-1.533 2.061-2.682 3.478-3.704.13-.128.387-.255.645-.51H17.678c-1.16 0-1.804-.512-2.062-1.406-.258-1.021.515-2.17 1.546-2.299H41c.644 0 .902-.127 1.16-.766.644-1.277 1.288-2.426 1.932-3.704.13-.255.258-.383.387-.638H21.672c-.387 0-.902 0-1.288-.128-.774-.255-1.29-1.15-1.16-1.916.129-.894.902-1.532 1.804-1.66h27.188c.386 0 .773-.128 1.16-.256 9.921-5.619 22.162-.382 24.868 10.601ZM20.64 53.228c1.289 0 1.546.256 1.546 1.533v.351c-.007 1.71-.117 1.813-1.944 1.82H7.37c-1.16 0-1.547-.383-1.547-1.533v-.361c.007-1.754.121-1.808 2.003-1.81h12.815-.001Z" clip-rule="evenodd"/></svg>